<mxfile host="Electron" modified="2025-07-20T02:35:54.987Z" agent="Mozilla/5.0 (Windows NT 10.0; Win64; x64) AppleWebKit/537.36 (KHTML, like Gecko) draw.io/22.1.18 Chrome/120.0.6099.199 Electron/28.1.2 Safari/537.36" etag="aB4IR2Pgq34OPa1x4CJP" version="22.1.18" type="device">
  <diagram name="Page-1" id="jjt2OIMZRrsvFuJQLJG-">
    <mxGraphModel dx="794" dy="511" grid="1" gridSize="10" guides="1" tooltips="1" connect="1" arrows="1" fold="1" page="1" pageScale="1" pageWidth="850" pageHeight="1100" math="0" shadow="0">
      <root>
        <mxCell id="0" />
        <mxCell id="1" parent="0" />
        <mxCell id="nUlTs2QQYP3eYVMz7vUX-1" value="System (Configuration, Diagnostics, Error Mgmt,&lt;br&gt;Caching, Identity, Sessions, Auditing,&amp;nbsp;&lt;br&gt;Permissions,&amp;nbsp;Routing, Notifications, Workflows, , etc.&amp;nbsp;&amp;nbsp;" style="rounded=0;whiteSpace=wrap;html=1;fillColor=#dae8fc;strokeColor=#6c8ebf;" vertex="1" parent="1">
          <mxGeometry x="280" y="240" width="400" height="40" as="geometry" />
        </mxCell>
        <mxCell id="nUlTs2QQYP3eYVMz7vUX-2" value="Social (People, Personas, Groups, Roles)" style="rounded=0;whiteSpace=wrap;html=1;fillColor=#dae8fc;strokeColor=#6c8ebf;" vertex="1" parent="1">
          <mxGeometry x="280" y="220" width="400" height="10" as="geometry" />
        </mxCell>
        <mxCell id="nUlTs2QQYP3eYVMz7vUX-3" value="Social Activities (Objectives, Tasks, Events, Assessments)" style="rounded=0;whiteSpace=wrap;html=1;fillColor=#dae8fc;strokeColor=#6c8ebf;" vertex="1" parent="1">
          <mxGeometry x="280" y="180" width="400" height="10" as="geometry" />
        </mxCell>
        <mxCell id="nUlTs2QQYP3eYVMz7vUX-4" value="Resources Management (Media, Metadata, Notifications, Messages)" style="rounded=0;whiteSpace=wrap;html=1;fillColor=#dae8fc;strokeColor=#6c8ebf;" vertex="1" parent="1">
          <mxGeometry x="280" y="200" width="400" height="10" as="geometry" />
        </mxCell>
        <mxCell id="nUlTs2QQYP3eYVMz7vUX-5" value="Business Specific (Education, Banking, etc)" style="rounded=0;whiteSpace=wrap;html=1;fillColor=#fff2cc;strokeColor=#d6b656;" vertex="1" parent="1">
          <mxGeometry x="280" y="160" width="400" height="10" as="geometry" />
        </mxCell>
        <mxCell id="nUlTs2QQYP3eYVMz7vUX-6" value="" style="endArrow=none;html=1;rounded=0;" edge="1" parent="1">
          <mxGeometry width="50" height="50" relative="1" as="geometry">
            <mxPoint x="270" y="280" as="sourcePoint" />
            <mxPoint x="270" y="180" as="targetPoint" />
          </mxGeometry>
        </mxCell>
        <mxCell id="nUlTs2QQYP3eYVMz7vUX-7" value="Common regardless of business service" style="text;html=1;strokeColor=none;fillColor=none;align=center;verticalAlign=middle;whiteSpace=wrap;rounded=0;horizontal=0;" vertex="1" parent="1">
          <mxGeometry x="210" y="180" width="60" height="100" as="geometry" />
        </mxCell>
      </root>
    </mxGraphModel>
  </diagram>
</mxfile>
